<svg id="visual" viewBox="0 0 1500 800" width="1500" height="800" xmlns="http://www.w3.org/2000/svg" xmlns:xlink="http://www.w3.org/1999/xlink" version="1.1"><rect x="0" y="0" width="1500" height="800" fill="#f5f5ff"></rect><path d="M803 0L819.3 26.7C835.7 53.3 868.3 106.7 878.5 160C888.7 213.3 876.3 266.7 870.2 320C864 373.3 864 426.7 879 480C894 533.3 924 586.7 938.2 640C952.3 693.3 950.7 746.7 949.8 773.3L949 800L0 800L0 773.3C0 746.7 0 693.3 0 640C0 586.7 0 533.3 0 480C0 426.7 0 373.3 0 320C0 266.7 0 213.3 0 160C0 106.7 0 53.3 0 26.7L0 0Z" fill="#f5f5ff"></path><path d="M743 0L761.2 26.7C779.3 53.3 815.7 106.7 848.3 160C881 213.3 910 266.7 892.8 320C875.7 373.3 812.3 426.7 795 480C777.7 533.3 806.3 586.7 813 640C819.7 693.3 804.3 746.7 796.7 773.3L789 800L0 800L0 773.3C0 746.7 0 693.3 0 640C0 586.7 0 533.3 0 480C0 426.7 0 373.3 0 320C0 266.7 0 213.3 0 160C0 106.7 0 53.3 0 26.7L0 0Z" fill="#e2e0f6"></path><path d="M856 0L834.8 26.7C813.7 53.3 771.3 106.7 748.2 160C725 213.3 721 266.7 714.8 320C708.7 373.3 700.3 426.7 698.5 480C696.7 533.3 701.3 586.7 718.8 640C736.3 693.3 766.7 746.7 781.8 773.3L797 800L0 800L0 773.3C0 746.7 0 693.3 0 640C0 586.7 0 533.3 0 480C0 426.7 0 373.3 0 320C0 266.7 0 213.3 0 160C0 106.7 0 53.3 0 26.7L0 0Z" fill="#cfccec"></path><path d="M631 0L637.2 26.7C643.3 53.3 655.7 106.7 660 160C664.3 213.3 660.7 266.7 674.5 320C688.3 373.3 719.7 426.7 712 480C704.3 533.3 657.7 586.7 626 640C594.3 693.3 577.7 746.7 569.3 773.3L561 800L0 800L0 773.3C0 746.7 0 693.3 0 640C0 586.7 0 533.3 0 480C0 426.7 0 373.3 0 320C0 266.7 0 213.3 0 160C0 106.7 0 53.3 0 26.7L0 0Z" fill="#beb8e2"></path><path d="M656 0L631 26.7C606 53.3 556 106.7 541.8 160C527.7 213.3 549.3 266.7 560.5 320C571.7 373.3 572.3 426.7 562.2 480C552 533.3 531 586.7 526.2 640C521.3 693.3 532.7 746.7 538.3 773.3L544 800L0 800L0 773.3C0 746.7 0 693.3 0 640C0 586.7 0 533.3 0 480C0 426.7 0 373.3 0 320C0 266.7 0 213.3 0 160C0 106.7 0 53.3 0 26.7L0 0Z" fill="#aea3d8"></path><path d="M560 0L537.7 26.7C515.3 53.3 470.7 106.7 452.5 160C434.3 213.3 442.7 266.7 457.2 320C471.7 373.3 492.3 426.7 513.7 480C535 533.3 557 586.7 543.3 640C529.7 693.3 480.3 746.7 455.7 773.3L431 800L0 800L0 773.3C0 746.7 0 693.3 0 640C0 586.7 0 533.3 0 480C0 426.7 0 373.3 0 320C0 266.7 0 213.3 0 160C0 106.7 0 53.3 0 26.7L0 0Z" fill="#9f8fcd"></path><path d="M353 0L371.8 26.7C390.7 53.3 428.3 106.7 452.2 160C476 213.3 486 266.7 469.2 320C452.3 373.3 408.7 426.7 404.3 480C400 533.3 435 586.7 453 640C471 693.3 472 746.7 472.5 773.3L473 800L0 800L0 773.3C0 746.7 0 693.3 0 640C0 586.7 0 533.3 0 480C0 426.7 0 373.3 0 320C0 266.7 0 213.3 0 160C0 106.7 0 53.3 0 26.7L0 0Z" fill="#917bc2"></path><path d="M359 0L361.7 26.7C364.3 53.3 369.7 106.7 374 160C378.3 213.3 381.7 266.7 364.7 320C347.7 373.3 310.3 426.7 289.8 480C269.3 533.3 265.7 586.7 276.3 640C287 693.3 312 746.7 324.5 773.3L337 800L0 800L0 773.3C0 746.7 0 693.3 0 640C0 586.7 0 533.3 0 480C0 426.7 0 373.3 0 320C0 266.7 0 213.3 0 160C0 106.7 0 53.3 0 26.7L0 0Z" fill="#8466b6"></path><path d="M200 0L201 26.7C202 53.3 204 106.7 213.7 160C223.3 213.3 240.7 266.7 247.7 320C254.7 373.3 251.3 426.7 249.7 480C248 533.3 248 586.7 242 640C236 693.3 224 746.7 218 773.3L212 800L0 800L0 773.3C0 746.7 0 693.3 0 640C0 586.7 0 533.3 0 480C0 426.7 0 373.3 0 320C0 266.7 0 213.3 0 160C0 106.7 0 53.3 0 26.7L0 0Z" fill="#7851a9"></path><path d="M177 0L176.3 26.7C175.7 53.3 174.3 106.7 183.7 160C193 213.3 213 266.7 212 320C211 373.3 189 426.7 176.8 480C164.7 533.3 162.3 586.7 166.5 640C170.7 693.3 181.3 746.7 186.7 773.3L192 800L0 800L0 773.3C0 746.7 0 693.3 0 640C0 586.7 0 533.3 0 480C0 426.7 0 373.3 0 320C0 266.7 0 213.3 0 160C0 106.7 0 53.3 0 26.7L0 0Z" fill="#6d3b9c"></path><path d="M90 0L86.8 26.7C83.7 53.3 77.3 106.7 80.7 160C84 213.3 97 266.7 94.3 320C91.7 373.3 73.3 426.7 78.2 480C83 533.3 111 586.7 125.3 640C139.7 693.3 140.3 746.7 140.7 773.3L141 800L0 800L0 773.3C0 746.7 0 693.3 0 640C0 586.7 0 533.3 0 480C0 426.7 0 373.3 0 320C0 266.7 0 213.3 0 160C0 106.7 0 53.3 0 26.7L0 0Z" fill="#62238e"></path></svg>