<svg id="visual" viewBox="0 0 1500 1000" width="1500" height="1000" xmlns="http://www.w3.org/2000/svg" xmlns:xlink="http://www.w3.org/1999/xlink" version="1.1"><rect x="0" y="0" width="1500" height="1000" fill="#f5f5ff"></rect><path d="M803 0L819.3 33.3C835.7 66.7 868.3 133.3 878.5 200C888.7 266.7 876.3 333.3 870.2 400C864 466.7 864 533.3 879 600C894 666.7 924 733.3 938.2 800C952.3 866.7 950.7 933.3 949.8 966.7L949 1000L0 1000L0 966.7C0 933.3 0 866.7 0 800C0 733.3 0 666.7 0 600C0 533.3 0 466.7 0 400C0 333.3 0 266.7 0 200C0 133.3 0 66.7 0 33.3L0 0Z" fill="#f5f5ff"></path><path d="M743 0L761.2 33.3C779.3 66.7 815.7 133.3 848.3 200C881 266.7 910 333.3 892.8 400C875.7 466.7 812.3 533.3 795 600C777.7 666.7 806.3 733.3 813 800C819.7 866.7 804.3 933.3 796.7 966.7L789 1000L0 1000L0 966.7C0 933.3 0 866.7 0 800C0 733.3 0 666.7 0 600C0 533.3 0 466.7 0 400C0 333.3 0 266.7 0 200C0 133.3 0 66.7 0 33.3L0 0Z" fill="#e2e0f6"></path><path d="M856 0L834.8 33.3C813.7 66.7 771.3 133.3 748.2 200C725 266.7 721 333.3 714.8 400C708.7 466.7 700.3 533.3 698.5 600C696.7 666.7 701.3 733.3 718.8 800C736.3 866.7 766.7 933.3 781.8 966.7L797 1000L0 1000L0 966.7C0 933.3 0 866.7 0 800C0 733.3 0 666.7 0 600C0 533.3 0 466.7 0 400C0 333.3 0 266.7 0 200C0 133.3 0 66.7 0 33.3L0 0Z" fill="#cfccec"></path><path d="M631 0L637.2 33.3C643.3 66.7 655.7 133.3 660 200C664.3 266.7 660.7 333.3 674.5 400C688.3 466.7 719.7 533.3 712 600C704.3 666.7 657.7 733.3 626 800C594.3 866.7 577.7 933.3 569.3 966.7L561 1000L0 1000L0 966.7C0 933.3 0 866.7 0 800C0 733.3 0 666.7 0 600C0 533.3 0 466.7 0 400C0 333.3 0 266.7 0 200C0 133.3 0 66.7 0 33.3L0 0Z" fill="#beb8e2"></path><path d="M656 0L631 33.3C606 66.7 556 133.3 541.8 200C527.7 266.7 549.3 333.3 560.5 400C571.7 466.7 572.3 533.3 562.2 600C552 666.7 531 733.3 526.2 800C521.3 866.7 532.7 933.3 538.3 966.7L544 1000L0 1000L0 966.7C0 933.3 0 866.7 0 800C0 733.3 0 666.7 0 600C0 533.3 0 466.7 0 400C0 333.3 0 266.7 0 200C0 133.3 0 66.7 0 33.3L0 0Z" fill="#aea3d8"></path><path d="M560 0L537.7 33.3C515.3 66.7 470.7 133.3 452.5 200C434.3 266.7 442.7 333.3 457.2 400C471.7 466.7 492.3 533.3 513.7 600C535 666.7 557 733.3 543.3 800C529.7 866.7 480.3 933.3 455.7 966.7L431 1000L0 1000L0 966.7C0 933.3 0 866.7 0 800C0 733.3 0 666.7 0 600C0 533.3 0 466.7 0 400C0 333.3 0 266.7 0 200C0 133.3 0 66.7 0 33.3L0 0Z" fill="#9f8fcd"></path><path d="M353 0L371.8 33.3C390.7 66.7 428.3 133.3 452.2 200C476 266.7 486 333.3 469.2 400C452.3 466.7 408.7 533.3 404.3 600C400 666.7 435 733.3 453 800C471 866.7 472 933.3 472.5 966.7L473 1000L0 1000L0 966.7C0 933.3 0 866.7 0 800C0 733.3 0 666.7 0 600C0 533.3 0 466.7 0 400C0 333.3 0 266.7 0 200C0 133.3 0 66.7 0 33.3L0 0Z" fill="#917bc2"></path><path d="M359 0L361.7 33.3C364.3 66.7 369.7 133.3 374 200C378.3 266.7 381.7 333.3 364.7 400C347.7 466.7 310.3 533.3 289.8 600C269.3 666.7 265.7 733.3 276.3 800C287 866.7 312 933.3 324.5 966.7L337 1000L0 1000L0 966.7C0 933.3 0 866.7 0 800C0 733.3 0 666.7 0 600C0 533.3 0 466.7 0 400C0 333.3 0 266.7 0 200C0 133.3 0 66.7 0 33.3L0 0Z" fill="#8466b6"></path><path d="M200 0L201 33.3C202 66.7 204 133.3 213.7 200C223.3 266.7 240.7 333.3 247.7 400C254.7 466.7 251.3 533.3 249.7 600C248 666.7 248 733.3 242 800C236 866.7 224 933.3 218 966.7L212 1000L0 1000L0 966.7C0 933.3 0 866.7 0 800C0 733.3 0 666.7 0 600C0 533.3 0 466.7 0 400C0 333.3 0 266.7 0 200C0 133.3 0 66.7 0 33.3L0 0Z" fill="#7851a9"></path><path d="M177 0L176.3 33.3C175.7 66.7 174.3 133.3 183.7 200C193 266.7 213 333.3 212 400C211 466.7 189 533.3 176.8 600C164.7 666.7 162.3 733.3 166.5 800C170.7 866.7 181.3 933.3 186.7 966.7L192 1000L0 1000L0 966.7C0 933.3 0 866.7 0 800C0 733.3 0 666.7 0 600C0 533.3 0 466.7 0 400C0 333.3 0 266.7 0 200C0 133.3 0 66.7 0 33.3L0 0Z" fill="#6d3b9c"></path><path d="M90 0L86.8 33.3C83.7 66.7 77.3 133.3 80.7 200C84 266.7 97 333.3 94.3 400C91.7 466.7 73.3 533.3 78.2 600C83 666.7 111 733.3 125.3 800C139.7 866.7 140.3 933.3 140.7 966.7L141 1000L0 1000L0 966.7C0 933.3 0 866.7 0 800C0 733.3 0 666.7 0 600C0 533.3 0 466.7 0 400C0 333.3 0 266.7 0 200C0 133.3 0 66.7 0 33.3L0 0Z" fill="#62238e"></path></svg>